<?xml version="1.0" encoding="UTF-8" standalone="no"?>
<!-- Created with Inkscape (http://www.inkscape.org/) -->

<svg
   xmlns:dc="http://purl.org/dc/elements/1.1/"
   xmlns:cc="http://creativecommons.org/ns#"
   xmlns:rdf="http://www.w3.org/1999/02/22-rdf-syntax-ns#"
   xmlns:svg="http://www.w3.org/2000/svg"
   xmlns="http://www.w3.org/2000/svg"
   xmlns:sodipodi="http://sodipodi.sourceforge.net/DTD/sodipodi-0.dtd"
   xmlns:inkscape="http://www.inkscape.org/namespaces/inkscape"
   width="210mm"
   height="297mm"
   viewBox="0 0 744.09448819 1052.3622047"
   id="svg4232"
   version="1.1"
   inkscape:version="0.91 r13725"
   sodipodi:docname="bpm.svg">
  <defs
     id="defs4234" />
  <sodipodi:namedview
     id="base"
     pagecolor="#ffffff"
     bordercolor="#666666"
     borderopacity="1.0"
     inkscape:pageopacity="0.0"
     inkscape:pageshadow="2"
     inkscape:zoom="0.35"
     inkscape:cx="-159.28571"
     inkscape:cy="520"
     inkscape:document-units="px"
     inkscape:current-layer="layer1"
     showgrid="false"
     inkscape:window-width="1440"
     inkscape:window-height="851"
     inkscape:window-x="0"
     inkscape:window-y="1"
     inkscape:window-maximized="1" />
  <metadata
     id="metadata4237">
    <rdf:RDF>
      <cc:Work
         rdf:about="">
        <dc:format>image/svg+xml</dc:format>
        <dc:type
           rdf:resource="http://purl.org/dc/dcmitype/StillImage" />
        <dc:title></dc:title>
      </cc:Work>
    </rdf:RDF>
  </metadata>
  <g
     inkscape:label="Layer 1"
     inkscape:groupmode="layer"
     id="layer1">
    <path
       id="path4875"
       style="font-style:normal;font-variant:normal;font-weight:normal;font-stretch:normal;font-size:medium;line-height:0%;font-family:'VCR OSD Mono';-inkscape-font-specification:'VCR OSD Mono';text-align:start;letter-spacing:0px;word-spacing:0px;writing-mode:lr-tb;text-anchor:start;fill:#000000;fill-opacity:1;stroke:none;stroke-width:1px;stroke-linecap:butt;stroke-linejoin:miter;stroke-opacity:1"
       d="m 306.631,33.065305 0,7.3242 -29.29688,0 0,-7.3242 29.29688,0 z m -47.60744,-21.9726 7.32422,0 0,14.6484 -3.66211,0 0,3.6621 -3.66211,0 0,3.6621 -3.66211,0 0,3.6621 -3.66212,0 0,3.6621 -3.66211,0 0,3.6622 -3.66211,0 0,3.6621 -3.66211,0 0,3.6621 -3.66211,0 0,10.9863 -7.32422,0 0,-14.6484 3.66211,0 0,-3.6621 3.66211,0 0,-3.6622 3.66211,0 0,-3.6621 3.66211,0 0,-3.6621 3.66211,0 0,-3.6621 3.66211,0 0,-3.6621 3.66212,0 0,-3.6621 3.66211,0 0,-10.9863 z m -58.59378,21.9726 0,-14.6484 7.32422,0 0,14.6484 14.64845,0 0,7.3242 -14.64845,0 0,14.6485 -7.32422,0 0,-14.6485 -14.64845,0 0,-7.3242 14.64845,0 z m -95.21488,29.2969 -7.324226,0 0,-51.2695 7.324226,0 0,7.3242 3.66211,0 0,3.6621 3.66211,0 0,3.6621 7.32421,0 0,-3.6621 3.66211,0 0,-3.6621 3.66212,0 0,-7.3242 7.32422,0 0,51.2695 -7.32422,0 0,-32.959 -3.66212,0 0,3.6621 -3.66211,0 0,7.3242 -7.32421,0 0,-7.3242 -3.66211,0 0,-3.6621 -3.66211,0 0,32.959 z m -43.945346,-43.9453 0,14.6484 18.310559,0 0,-3.6621 3.662112,0 0,-7.3242 -3.662112,0 0,-3.6621 -18.310559,0 z m 0,21.9726 0,21.9727 -7.324213,0 0,-51.2695 29.296884,0 0,3.6621 3.662111,0 0,3.6621 3.662112,0 0,14.6484 -3.662112,0 0,3.6621 -3.662111,0 0,3.6621 -21.972671,0 z m -43.945331,-7.3242 18.310559,0 0,-3.6621 3.662112,0 0,-7.3242 -3.662112,0 0,-3.6621 -18.310559,0 0,14.6484 z M 10,62.362205 l 0,-51.2695 29.296894,0 0,3.6621 3.662112,0 0,3.6621 3.662111,0 0,14.6484 -3.662111,0 0,7.3242 3.662111,0 0,14.6485 -3.662111,0 0,3.6621 -3.662112,0 0,3.6621 -29.296894,0 z m 7.324223,-7.3242 18.310559,0 0,-3.6621 3.662112,0 0,-7.3242 -3.662112,0 0,-3.6622 -18.310559,0 0,14.6485 z"
       inkscape:connector-curvature="0" />
    <flowRoot
       xml:space="preserve"
       id="flowRoot4802"
       style="fill:black;stroke:none;stroke-opacity:1;stroke-width:1px;stroke-linejoin:miter;stroke-linecap:butt;fill-opacity:1;font-family:Aesthetique;font-style:normal;font-weight:normal;font-size:30px;line-height:0%;letter-spacing:0px;word-spacing:0px;-inkscape-font-specification:'Aesthetique, Normal';font-stretch:normal;font-variant:normal;text-anchor:start;text-align:start;writing-mode:lr"><flowRegion
         id="flowRegion4804"><rect
           id="rect4806"
           width="100"
           height="111.42857"
           x="200"
           y="100.93363" /></flowRegion><flowPara
         id="flowPara4808"></flowPara></flowRoot>  </g>
</svg>
