<?xml version="1.0" encoding="UTF-8" standalone="no"?>
<!-- Created with Inkscape (http://www.inkscape.org/) -->

<svg
   xmlns:dc="http://purl.org/dc/elements/1.1/"
   xmlns:cc="http://creativecommons.org/ns#"
   xmlns:rdf="http://www.w3.org/1999/02/22-rdf-syntax-ns#"
   xmlns:svg="http://www.w3.org/2000/svg"
   xmlns="http://www.w3.org/2000/svg"
   xmlns:sodipodi="http://sodipodi.sourceforge.net/DTD/sodipodi-0.dtd"
   xmlns:inkscape="http://www.inkscape.org/namespaces/inkscape"
   width="210mm"
   height="297mm"
   viewBox="0 0 744.09448819 1052.3622047"
   id="svg2"
   version="1.1"
   inkscape:version="0.91 r13725"
   sodipodi:docname="hybrid-decliners.svg">
  <defs
     id="defs4" />
  <sodipodi:namedview
     id="base"
     pagecolor="#ffffff"
     bordercolor="#666666"
     borderopacity="1.0"
     inkscape:pageopacity="0.0"
     inkscape:pageshadow="2"
     inkscape:zoom="0.57652284"
     inkscape:cx="692.36194"
     inkscape:cy="308.12147"
     inkscape:document-units="px"
     inkscape:current-layer="layer1"
     showgrid="false"
     inkscape:window-width="1440"
     inkscape:window-height="851"
     inkscape:window-x="0"
     inkscape:window-y="1"
     inkscape:window-maximized="1" />
  <metadata
     id="metadata7">
    <rdf:RDF>
      <cc:Work
         rdf:about="">
        <dc:format>image/svg+xml</dc:format>
        <dc:type
           rdf:resource="http://purl.org/dc/dcmitype/StillImage" />
        <dc:title></dc:title>
      </cc:Work>
    </rdf:RDF>
  </metadata>
  <g
     inkscape:label="Layer 1"
     inkscape:groupmode="layer"
     id="layer1">
    <flowRoot
       xml:space="preserve"
       id="flowRoot4136"
       style="fill:black;stroke:none;stroke-opacity:1;stroke-width:1px;stroke-linejoin:miter;stroke-linecap:butt;fill-opacity:1;font-family:Aesthetique;font-style:normal;font-weight:normal;font-size:50px;line-height:125%;letter-spacing:0px;word-spacing:0px;-inkscape-font-specification:'Aesthetique, Normal';font-stretch:normal;font-variant:normal;text-anchor:start;text-align:start;writing-mode:lr;"><flowRegion
         id="flowRegion4138"><rect
           id="rect4140"
           width="677.14288"
           height="328.57144"
           x="31.428572"
           y="403.79077"
           style="font-size:50px;" /></flowRegion><flowPara
         id="flowPara4142"></flowPara></flowRoot>    <text
       xml:space="preserve"
       style="font-style:normal;font-variant:normal;font-weight:normal;font-stretch:normal;font-size:30px;line-height:125%;font-family:'VCR OSD Mono';-inkscape-font-specification:'VCR OSD Mono';text-align:start;letter-spacing:0px;word-spacing:0px;writing-mode:lr-tb;text-anchor:start;fill:#000000;fill-opacity:1;stroke:none;stroke-width:1px;stroke-linecap:butt;stroke-linejoin:miter;stroke-opacity:1;"
       x="51.42857"
       y="455.21936"
       id="text4144"
       sodipodi:linespacing="125%"><tspan
         sodipodi:role="line"
         id="tspan4146"
         x="51.42857"
         y="455.21936" /></text>
    <flowRoot
       xml:space="preserve"
       id="flowRoot4148"
       style="fill:black;stroke:none;stroke-opacity:1;stroke-width:1px;stroke-linejoin:miter;stroke-linecap:butt;fill-opacity:1;font-family:'VCR OSD Mono';font-style:normal;font-weight:normal;font-size:30px;line-height:125%;letter-spacing:0px;word-spacing:0px;-inkscape-font-specification:'VCR OSD Mono';font-stretch:normal;font-variant:normal;text-anchor:start;text-align:start;writing-mode:lr;"><flowRegion
         id="flowRegion4150"><rect
           id="rect4152"
           width="634.28571"
           height="357.14285"
           x="80"
           y="558.07648"
           style="-inkscape-font-specification:'VCR OSD Mono';font-family:'VCR OSD Mono';font-weight:normal;font-style:normal;font-stretch:normal;font-variant:normal;" /></flowRegion><flowPara
         id="flowPara4154"></flowPara></flowRoot>    <path
       id="path4214"
       style="font-style:normal;font-variant:normal;font-weight:normal;font-stretch:normal;font-size:75px;line-height:94.99999881%;font-family:'VCR OSD Mono';-inkscape-font-specification:'VCR OSD Mono';text-align:start;letter-spacing:0px;word-spacing:0px;writing-mode:lr-tb;text-anchor:start;fill:#000000;fill-opacity:1;stroke:none;stroke-width:1px;stroke-linecap:butt;stroke-linejoin:miter;stroke-opacity:1"
       d="m 394.52149,998.41689 3.66211,0 0,7.32421 -7.32422,0 0,-3.6621 -3.66211,0 0,-3.66211 -14.64844,0 0,3.66211 -3.66211,0 0,7.3242 3.66211,0 0,3.6621 18.31055,0 0,3.6621 3.66211,0 0,3.6622 3.66211,0 0,14.6484 -3.66211,0 0,3.6621 -3.66211,0 0,3.6621 -21.97266,0 0,-3.6621 -3.66211,0 0,-3.6621 -3.66211,0 0,-7.3242 7.32422,0 0,3.6621 3.66211,0 0,3.6621 14.64844,0 0,-3.6621 3.66211,0 0,-7.3242 -3.66211,0 0,-3.6621 -18.31055,0 0,-3.6622 -3.66211,0 0,-3.6621 -3.66211,0 0,-14.64841 3.66211,0 0,-3.66211 3.66211,0 0,-3.66211 21.97266,0 0,3.66211 3.66211,0 0,3.66211 z m -69.58008,0 0,14.64841 18.31055,0 0,-3.6621 3.66211,0 0,-7.3242 -3.66211,0 0,-3.66211 -18.31055,0 z m 3.66211,21.97271 -3.66211,0 0,21.9726 -7.32422,0 0,-51.26953 29.29688,0 0,3.66211 3.66211,0 0,3.66211 3.6621,0 0,14.64841 -3.6621,0 0,3.6621 -3.66211,0 0,3.6622 -7.32422,0 0,3.6621 3.66211,0 0,3.6621 3.66211,0 0,3.6621 3.66211,0 0,3.6621 3.6621,0 0,7.3242 -7.32421,0 0,-3.6621 -3.66211,0 0,-3.6621 -3.66211,0 0,-3.6621 -3.66211,0 0,-3.6621 -3.66211,0 0,-3.6621 -3.66211,0 0,-3.6621 z m -18.31055,-29.29693 0,7.32422 -29.29687,0 0,14.64841 21.97265,0 0,7.3243 -21.97265,0 0,14.6484 29.29687,0 0,7.3242 -36.62109,0 0,-51.26953 36.62109,0 z m -73.24219,21.97263 0,29.2969 -7.32421,0 0,-51.26953 7.32421,0 0,10.98633 3.66211,0 0,3.6621 3.66211,0 0,3.6621 3.66211,0 0,3.6621 3.66211,0 0,3.6621 3.66211,0 0,3.6622 3.66211,0 0,-29.29693 7.32422,0 0,51.26953 -7.32422,0 0,-10.9863 -3.66211,0 0,-3.6621 -3.66211,0 0,-3.6621 -3.66211,0 0,-3.6621 -3.66211,0 0,-3.6622 -3.66211,0 0,-3.6621 -3.66211,0 z m -43.94531,29.2969 0,-7.3242 7.32422,0 0,-36.62111 -7.32422,0 0,-7.32422 21.97266,0 0,7.32422 -7.32422,0 0,36.62111 7.32422,0 0,7.3242 -21.97266,0 z m -51.26953,0 0,-51.26953 7.32422,0 0,43.94533 29.29687,0 0,7.3242 -36.62109,0 z m -32.95898,-7.3242 14.64843,0 0,-3.6621 3.66211,0 0,-3.6621 7.32422,0 0,7.3242 -3.66211,0 0,3.6621 -3.66211,0 0,3.6621 -21.97265,0 0,-3.6621 -3.66211,0 0,-3.6621 -3.662111,0 0,-36.62111 3.662111,0 0,-3.66211 3.66211,0 0,-3.66211 21.97265,0 0,3.66211 3.66211,0 0,3.66211 3.66211,0 0,7.32421 -7.32422,0 0,-3.6621 -3.66211,0 0,-3.66211 -14.64843,0 0,3.66211 -3.66211,0 0,29.2969 3.66211,0 0,3.6621 z m -18.310551,-43.94533 0,7.32422 -29.29688,0 0,14.64841 21.97266,0 0,7.3243 -21.97266,0 0,14.6484 29.29688,0 0,7.3242 -36.62109,0 0,-51.26953 36.62109,0 z m -73.242193,7.32422 0,36.62111 18.310553,0 0,-3.6621 3.66211,0 0,-29.2969 -3.66211,0 0,-3.66211 -18.310553,0 z M 10,1042.3622 l 0,-51.26953 29.296879,0 0,3.66211 3.66211,0 0,3.66211 3.66211,0 0,36.62111 -3.66211,0 0,3.6621 -3.66211,0 0,3.6621 -29.296879,0 z m 227.05078,-115.19531 0,36.62109 18.31055,0 0,-3.66211 3.66211,0 0,-29.29687 -3.66211,0 0,-3.66211 -18.31055,0 z m -7.32421,43.94531 0,-51.26953 29.29687,0 0,3.66211 3.66211,0 0,3.66211 3.66211,0 0,36.62109 -3.66211,0 0,3.66211 -3.66211,0 0,3.66211 -29.29687,0 z m -36.6211,0 0,-7.32422 7.32422,0 0,-36.62109 -7.32422,0 0,-7.32422 21.97266,0 0,7.32422 -7.32422,0 0,36.62109 7.32422,0 0,7.32422 -21.97266,0 z m -43.94531,-43.94531 0,14.64844 18.31055,0 0,-3.66211 3.66211,0 0,-7.32422 -3.66211,0 0,-3.66211 -18.31055,0 z m 3.66211,21.97266 -3.66211,0 0,21.97265 -7.32422,0 0,-51.26953 29.29688,0 0,3.66211 3.66211,0 0,3.66211 3.6621,0 0,14.64844 -3.6621,0 0,3.66211 -3.66211,0 0,3.66211 -7.32422,0 0,3.6621 3.66211,0 0,3.66211 3.66211,0 0,3.66211 3.66211,0 0,3.66211 3.6621,0 0,7.32422 -7.32421,0 0,-3.66211 -3.66211,0 0,-3.66211 -3.66211,0 0,-3.66211 -3.66211,0 0,-3.66211 -3.66211,0 0,-3.66211 -3.66211,0 0,-3.6621 z m -47.60742,-7.32422 18.31054,0 0,-3.66211 3.66211,0 0,-7.32422 -3.66211,0 0,-3.66211 -18.31054,0 0,14.64844 z m -7.324221,29.29687 0,-51.26953 29.296871,0 0,3.66211 3.66211,0 0,3.66211 3.66211,0 0,14.64844 -3.66211,0 0,7.32422 3.66211,0 0,14.64843 -3.66211,0 0,3.66211 -3.66211,0 0,3.66211 -29.296871,0 z m 7.324221,-7.32422 18.31054,0 0,-3.66211 3.66211,0 0,-7.32422 -3.66211,0 0,-3.6621 -18.31054,0 0,14.64843 z m -29.296881,7.32422 -7.32422,0 0,-18.31055 -3.66211,0 0,-3.6621 -3.66211,0 0,-3.66211 -3.6621,0 0,-3.66211 -3.66211,0 0,-21.97266 7.32421,0 0,18.31055 3.66211,0 0,3.66211 3.66211,0 0,3.66211 7.32422,0 0,-3.66211 3.66211,0 0,-3.66211 3.66211,0 0,-18.31055 7.32422,0 0,21.97266 -3.66211,0 0,3.66211 -3.66211,0 0,3.66211 -3.66211,0 0,3.6621 -3.66211,0 0,18.31055 z m -58.593753,-21.97265 0,21.97265 -7.324216,0 0,-51.26953 7.324216,0 0,21.97266 21.972663,0 0,-21.97266 7.32422,0 0,51.26953 -7.32422,0 0,-21.97265 -21.972663,0 z"
       inkscape:connector-curvature="0" />
  </g>
</svg>
