<?xml version="1.0" encoding="UTF-8" standalone="no"?>
<!-- Created with Inkscape (http://www.inkscape.org/) -->

<svg
   xmlns:dc="http://purl.org/dc/elements/1.1/"
   xmlns:cc="http://creativecommons.org/ns#"
   xmlns:rdf="http://www.w3.org/1999/02/22-rdf-syntax-ns#"
   xmlns:svg="http://www.w3.org/2000/svg"
   xmlns="http://www.w3.org/2000/svg"
   xmlns:sodipodi="http://sodipodi.sourceforge.net/DTD/sodipodi-0.dtd"
   xmlns:inkscape="http://www.inkscape.org/namespaces/inkscape"
   width="210mm"
   height="297mm"
   viewBox="0 0 744.09448819 1052.3622047"
   id="svg4884"
   version="1.1"
   inkscape:version="0.91 r13725"
   sodipodi:docname="info.svg">
  <defs
     id="defs4886" />
  <sodipodi:namedview
     id="base"
     pagecolor="#ffffff"
     bordercolor="#666666"
     borderopacity="1.0"
     inkscape:pageopacity="0.0"
     inkscape:pageshadow="2"
     inkscape:zoom="0.35"
     inkscape:cx="-159.28571"
     inkscape:cy="520"
     inkscape:document-units="px"
     inkscape:current-layer="layer1"
     showgrid="false"
     inkscape:window-width="1440"
     inkscape:window-height="851"
     inkscape:window-x="0"
     inkscape:window-y="1"
     inkscape:window-maximized="1" />
  <metadata
     id="metadata4889">
    <rdf:RDF>
      <cc:Work
         rdf:about="">
        <dc:format>image/svg+xml</dc:format>
        <dc:type
           rdf:resource="http://purl.org/dc/dcmitype/StillImage" />
        <dc:title></dc:title>
      </cc:Work>
    </rdf:RDF>
  </metadata>
  <g
     inkscape:label="Layer 1"
     inkscape:groupmode="layer"
     id="layer1">
    <path
       id="path5495"
       style="font-style:normal;font-variant:normal;font-weight:normal;font-stretch:normal;font-size:75px;line-height:0%;font-family:'VCR OSD Mono';-inkscape-font-specification:'VCR OSD Mono';text-align:start;letter-spacing:0px;word-spacing:0px;writing-mode:lr-tb;text-anchor:start;fill:#000000;fill-opacity:1;stroke:none;stroke-width:1px;stroke-linecap:butt;stroke-linejoin:miter;stroke-opacity:1"
       d="m 160.14649,18.416905 -14.64844,0 0,3.6621 -3.66211,0 0,29.2969 3.66211,0 0,3.6621 14.64844,0 0,-3.6621 3.66211,0 0,-29.2969 -3.66211,0 0,-3.6621 z m -18.31055,-3.66211 0,-3.66211 21.97266,0 0,3.66211 3.6621,0 0,3.66211 3.66211,0 0,36.6211 -3.66211,0 0,3.6621 -3.6621,0 0,3.6621 -21.97266,0 0,-3.6621 -3.66211,0 0,-3.6621 -3.66211,0 0,-36.6211 3.66211,0 0,-3.66211 3.66211,0 z m -14.64844,-3.66211 0,7.32422 -29.296871,0 0,14.6484 21.972651,0 0,7.3242 -21.972651,0 0,21.9727 -7.32422,0 0,-51.26952 36.621091,0 z m -73.24219,21.97262 0,29.2969 -7.32421,0 0,-51.26952 7.32421,0 0,10.98632 3.66211,0 0,3.6621 3.66211,0 0,3.6621 3.66211,0 0,3.6621 3.66211,0 0,3.6621 3.66211,0 0,3.6621 3.66211,0 0,-29.29682 7.32422,0 0,51.26952 -7.32422,0 0,-10.9863 -3.66211,0 0,-3.6621 -3.66211,0 0,-3.6621 -3.66211,0 0,-3.6622 -3.66211,0 0,-3.6621 -3.66211,0 0,-3.6621 -3.66211,0 z M 10,62.362205 l 0,-7.3242 7.32422,0 0,-36.6211 -7.32422,0 0,-7.32422 21.97266,0 0,7.32422 -7.32422,0 0,36.6211 7.32422,0 0,7.3242 -21.97266,0 z"
       inkscape:connector-curvature="0" />
  </g>
</svg>
